<svg width="20" height="20" viewBox="0 0 20 20" fill="none" xmlns="http://www.w3.org/2000/svg">
<g clip-path="url(#clip0)">
<path d="M0.781235 9.21875H17.3265L14.5857 6.49125C14.2799 6.18687 14.2787 5.69222 14.5831 5.3864C14.8874 5.08054 15.3821 5.07941 15.688 5.38375L19.7701 9.44625C19.7704 9.44648 19.7706 9.44675 19.7708 9.44699C20.0759 9.75136 20.0769 10.2476 19.7709 10.553C19.7706 10.5532 19.7705 10.5535 19.7702 10.5537L15.688 14.6162C15.3823 14.9205 14.8876 14.9195 14.5831 14.6136C14.2788 14.3078 14.2799 13.8131 14.5858 13.5087L17.3265 10.7812H0.781235C0.349751 10.7812 -1.52588e-05 10.4315 -1.52588e-05 10C-1.52588e-05 9.56851 0.349751 9.21875 0.781235 9.21875Z" fill="#181834"/>
</g>
<defs>
<clipPath id="clip0">
<rect width="20" height="20" fill="white" transform="matrix(-1 0 0 1 20 0)"/>
</clipPath>
</defs>
</svg>
