<svg width="18" height="18" viewBox="0 0 18 18" fill="none" xmlns="http://www.w3.org/2000/svg">
<path d="M16.3072 9.24836L9.55724 1.74836C9.27299 1.43186 8.72699 1.43186 8.44274 1.74836L1.69274 9.24836C1.59558 9.35606 1.53181 9.48966 1.50917 9.63293C1.48654 9.7762 1.50601 9.92296 1.56524 10.0554C1.68524 10.3261 1.95374 10.5001 2.24999 10.5001H3.74999V15.7501C3.74999 15.949 3.82901 16.1398 3.96966 16.2804C4.11031 16.4211 4.30108 16.5001 4.49999 16.5001H6.74999C6.9489 16.5001 7.13967 16.4211 7.28032 16.2804C7.42097 16.1398 7.49999 15.949 7.49999 15.7501V12.7501H10.5V15.7501C10.5 15.949 10.579 16.1398 10.7197 16.2804C10.8603 16.4211 11.0511 16.5001 11.25 16.5001H13.5C13.6989 16.5001 13.8897 16.4211 14.0303 16.2804C14.171 16.1398 14.25 15.949 14.25 15.7501V10.5001H15.75C15.8952 10.5007 16.0375 10.4591 16.1595 10.3802C16.2815 10.3014 16.3779 10.1887 16.437 10.056C16.4961 9.92334 16.5152 9.77632 16.4922 9.63291C16.4692 9.48949 16.4049 9.35588 16.3072 9.24836Z" fill="#1EB99B"/>
</svg>
