<svg width="22" height="22" viewBox="0 0 22 22" fill="none" xmlns="http://www.w3.org/2000/svg">
<g clip-path="url(#clip0)">
<path d="M20.7936 3.16369C20.02 2.38952 18.9703 1.95472 17.8759 1.95509C16.7819 1.95251 15.7323 2.38717 14.9603 3.16235L9.63418 8.48856C8.58038 9.54402 8.17751 11.0857 8.58029 12.5217C8.69822 12.9398 9.13274 13.1831 9.55082 13.0652C9.96889 12.9473 10.2122 12.5128 10.0943 12.0947C9.84599 11.2066 10.0951 10.2536 10.7463 9.6007L16.0724 4.27528C17.0682 3.27927 18.6829 3.27908 19.6789 4.27491C20.6749 5.2707 20.6751 6.88539 19.6793 7.8814L14.3532 13.2076C14.0041 13.5571 13.5609 13.7973 13.0775 13.8989C12.6522 13.9874 12.3793 14.4039 12.4678 14.8292C12.5439 15.1949 12.8667 15.4566 13.2403 15.4554C13.2952 15.4554 13.3501 15.4496 13.4039 15.4381C14.185 15.2734 14.9013 14.8848 15.4653 14.3197L20.7915 8.99433C22.4021 7.3848 22.4031 4.77437 20.7936 3.16369Z" fill="#1EB99B"/>
<path d="M13.3958 9.49978C13.2778 9.08171 12.8433 8.83838 12.4252 8.95631C12.0072 9.07424 11.7638 9.50877 11.8818 9.92684C12.1301 10.8149 11.8809 11.7679 11.2298 12.4208L5.90357 17.747C4.90779 18.743 3.2931 18.7432 2.29708 17.7474C1.30107 16.7516 1.30089 15.1369 2.29667 14.1409L7.62287 8.81391C7.97136 8.4645 8.41414 8.22427 8.89701 8.12256C9.32296 8.03735 9.59919 7.62301 9.51398 7.1971C9.42877 6.77119 9.01443 6.49492 8.58852 6.58013C8.58331 6.58119 8.57815 6.58225 8.57299 6.5834C7.79168 6.74833 7.07517 7.13691 6.51078 7.70181L1.18457 13.028C-0.413439 14.6507 -0.393439 17.2615 1.22923 18.8595C2.83419 20.4401 5.41047 20.4403 7.01567 18.8599L12.3418 13.5329C13.3957 12.4775 13.7985 10.9358 13.3958 9.49978Z" fill="#1EB99B"/>
</g>
<defs>
<clipPath id="clip0">
<rect width="22" height="22" fill="white"/>
</clipPath>
</defs>
</svg>
