<svg width="16" height="16" viewBox="0 0 16 16" fill="none" xmlns="http://www.w3.org/2000/svg">
<g clip-path="url(#clip0)">
<path d="M10.6728 11.3723L12.0513 9.99387C12.2369 9.81051 12.4718 9.685 12.7275 9.63256C12.9831 9.58013 13.2484 9.60303 13.4913 9.69849L15.1713 10.3693C15.4167 10.4689 15.6271 10.6389 15.7761 10.8579C15.925 11.077 16.0058 11.3352 16.0082 11.6V14.6769C16.0068 14.8571 15.9689 15.0351 15.8969 15.2003C15.8248 15.3654 15.7201 15.5143 15.589 15.6379C15.4579 15.7615 15.3032 15.8573 15.1341 15.9196C14.965 15.9818 14.7851 16.0092 14.6051 16C2.83281 15.2677 0.457426 5.29849 0.00819536 1.4831C-0.0126582 1.29574 0.00639514 1.10609 0.0641019 0.926616C0.121809 0.747146 0.216861 0.581928 0.343006 0.441832C0.469151 0.301736 0.623529 0.189936 0.795985 0.113788C0.96844 0.0376392 1.15506 -0.00113179 1.34358 2.51502e-05H4.31589C4.58112 0.00081025 4.84006 0.0809282 5.05939 0.230074C5.27872 0.37922 5.44842 0.590573 5.54666 0.836948L6.21743 2.51695C6.31604 2.75884 6.3412 3.02442 6.28976 3.28052C6.23832 3.53663 6.11256 3.7719 5.92819 3.95695L4.54973 5.33541C4.54973 5.33541 5.34358 10.7077 10.6728 11.3723Z" fill="#1EB99B"/>
</g>
<defs>
<clipPath id="clip0">
<rect width="16" height="16" fill="white"/>
</clipPath>
</defs>
</svg>
