<svg width="11" height="16" viewBox="0 0 11 16" fill="none" xmlns="http://www.w3.org/2000/svg">
<g clip-path="url(#clip0)">
<path d="M5.33333 0C2.38476 0 0 2.504 0 5.6C0 9.8 5.33333 16 5.33333 16C5.33333 16 10.6667 9.8 10.6667 5.6C10.6667 2.504 8.28191 0 5.33333 0ZM5.33333 7.6C4.82816 7.6 4.34368 7.38929 3.98646 7.01421C3.62925 6.63914 3.42857 6.13043 3.42857 5.6C3.42857 5.06957 3.62925 4.56086 3.98646 4.18579C4.34368 3.81071 4.82816 3.6 5.33333 3.6C5.83851 3.6 6.32299 3.81071 6.6802 4.18579C7.03742 4.56086 7.2381 5.06957 7.2381 5.6C7.2381 6.13043 7.03742 6.63914 6.6802 7.01421C6.32299 7.38929 5.83851 7.6 5.33333 7.6Z" fill="#1EB99B"/>
</g>
<defs>
<clipPath id="clip0">
<rect width="10.6667" height="16" fill="white"/>
</clipPath>
</defs>
</svg>
