<svg width="16" height="16" viewBox="0 0 16 16" fill="none" xmlns="http://www.w3.org/2000/svg">
<g clip-path="url(#clip0)">
<path d="M7.99972 3.42847C7.43463 3.42847 6.88223 3.59604 6.41238 3.90998C5.94252 4.22393 5.57632 4.67015 5.36007 5.19223C5.14382 5.7143 5.08724 6.28878 5.19748 6.84301C5.30772 7.39724 5.57984 7.90634 5.97942 8.30591C6.379 8.70549 6.88809 8.97761 7.44232 9.08785C7.99655 9.1981 8.57103 9.14152 9.0931 8.92527C9.61518 8.70902 10.0614 8.34281 10.3754 7.87295C10.6893 7.4031 10.8569 6.8507 10.8569 6.28561C10.8569 5.52785 10.5558 4.80112 10.02 4.2653C9.48421 3.72949 8.75748 3.42847 7.99972 3.42847Z" fill="white"/>
<path d="M8 0C6.41775 0 4.87103 0.469192 3.55544 1.34824C2.23985 2.22729 1.21447 3.47672 0.608967 4.93853C0.00346627 6.40034 -0.15496 8.00887 0.153721 9.56072C0.462403 11.1126 1.22433 12.538 2.34315 13.6569C3.46197 14.7757 4.88743 15.5376 6.43928 15.8463C7.99113 16.155 9.59966 15.9965 11.0615 15.391C12.5233 14.7855 13.7727 13.7602 14.6518 12.4446C15.5308 11.129 16 9.58225 16 8C15.9976 5.87901 15.154 3.84558 13.6542 2.34582C12.1544 0.846052 10.121 0.00241984 8 0ZM12.5669 13.1006C12.5555 12.351 12.2501 11.636 11.7165 11.1095C11.183 10.583 10.4639 10.2871 9.71429 10.2857H6.28572C5.53611 10.2871 4.81705 10.583 4.28348 11.1095C3.74991 11.636 3.44453 12.351 3.43315 13.1006C2.3969 12.1753 1.66613 10.9571 1.33762 9.60724C1.00911 8.2574 1.09835 6.83962 1.59351 5.54163C2.08868 4.24364 2.96641 3.12667 4.1105 2.33861C5.25459 1.55055 6.61106 1.12859 8.00029 1.12859C9.38952 1.12859 10.746 1.55055 11.8901 2.33861C13.0342 3.12667 13.9119 4.24364 14.4071 5.54163C14.9022 6.83962 14.9915 8.2574 14.663 9.60724C14.3344 10.9571 13.6037 12.1753 12.5674 13.1006H12.5669Z" fill="white"/>
</g>
<defs>
<clipPath id="clip0">
<rect width="16" height="16" fill="white"/>
</clipPath>
</defs>
</svg>
