<svg width="167" height="37" viewBox="0 0 167 37" fill="none" xmlns="http://www.w3.org/2000/svg">
<path d="M51.204 4.904H51.996V17H49.566V10.664L46.578 14.408H45.786L42.798 10.664V17H40.368V4.904H41.16L46.182 11.33L51.204 4.904ZM62.3973 17L61.7313 15.452H56.8713L56.2053 17H53.5953L58.9053 4.904H59.7153L65.0073 17H62.3973ZM60.8853 13.454L59.3013 9.44L57.7173 13.454H60.8853ZM77.0877 17H74.1537L69.0597 10.808V17H66.6297V5.12H69.0597V10.628L73.5957 5.12H76.4937L71.9397 10.718L77.0877 17ZM89.1463 17H86.2123L81.1183 10.808V17H78.6883V5.12H81.1183V10.628L85.6543 5.12H88.5523L83.9983 10.718L89.1463 17ZM89.1664 11.06C89.1424 9.368 89.7544 7.91 91.0024 6.686C92.2624 5.462 93.7504 4.868 95.4664 4.904C97.1824 4.868 98.6704 5.462 99.9304 6.686C101.202 7.91 101.826 9.368 101.802 11.06C101.826 12.752 101.202 14.21 99.9304 15.434C98.6704 16.658 97.1824 17.252 95.4664 17.216C93.7504 17.252 92.2624 16.658 91.0024 15.434C89.7544 14.21 89.1424 12.752 89.1664 11.06ZM99.3004 11.06C99.3004 9.932 98.9344 9.002 98.2024 8.27C97.4824 7.526 96.5764 7.154 95.4844 7.154C94.3804 7.154 93.4684 7.52 92.7484 8.252C92.0284 8.984 91.6684 9.92 91.6684 11.06C91.6684 12.2 92.0284 13.136 92.7484 13.868C93.4684 14.6 94.3804 14.966 95.4844 14.966C96.5764 14.966 97.4824 14.6 98.2024 13.868C98.9344 13.136 99.3004 12.2 99.3004 11.06ZM114.696 4.904H115.488V17H113.058V10.664L110.07 14.408H109.278L106.29 10.664V17H103.86V4.904H104.652L109.674 11.33L114.696 4.904ZM117.664 12.248V10.214H122.2V12.248H117.664ZM124.374 17V5.12H132.006V7.316H126.804V17H124.374ZM133.813 17V5.12H138.277C139.525 5.12 140.551 5.474 141.355 6.182C142.159 6.89 142.561 7.814 142.561 8.954C142.561 10.082 142.159 11.006 141.355 11.726C140.551 12.446 139.525 12.806 138.277 12.806H136.243V17H133.813ZM136.243 10.682H138.277C138.841 10.682 139.279 10.526 139.591 10.214C139.915 9.89 140.077 9.47 140.077 8.954C140.077 8.45 139.909 8.042 139.573 7.73C139.249 7.418 138.817 7.262 138.277 7.262H136.243V10.682ZM151.619 5.12H154.211L150.161 14.012C149.597 15.188 149.057 16.01 148.541 16.478C148.025 16.934 147.257 17.174 146.237 17.198C145.793 17.198 145.343 17.132 144.887 17V14.93C145.187 14.966 145.505 14.984 145.841 14.984C146.561 14.984 147.119 14.732 147.515 14.228L143.087 5.12H145.805L148.829 11.582L151.619 5.12ZM155.821 17V5.12H165.757V17H163.327V7.316H158.251V17H155.821ZM40.156 33V26.3768H44.6168V27.3152H41.2032V33H40.156ZM50.8973 28.92V33H49.9181V32.1432C49.4104 32.8141 48.6669 33.1496 47.6877 33.1496C46.9987 33.1496 46.4411 32.9819 46.0149 32.6464C45.5888 32.3019 45.3757 31.8485 45.3757 31.2864C45.3757 30.7243 45.5933 30.2755 46.0285 29.94C46.4637 29.6045 47.0395 29.4368 47.7557 29.4368H49.8501V28.8656C49.8501 28.3307 49.7051 27.9181 49.4149 27.628C49.1339 27.3379 48.744 27.1928 48.2453 27.1928C47.5019 27.1928 46.8581 27.5464 46.3141 28.2536L45.6205 27.6824C46.2099 26.7123 47.1075 26.2272 48.3133 26.2272C49.1112 26.2272 49.7413 26.4629 50.2037 26.9344C50.6661 27.3968 50.8973 28.0587 50.8973 28.92ZM49.8501 30.4568V30.2936H47.8781C46.9261 30.2936 46.4501 30.6064 46.4501 31.232C46.4501 31.5584 46.5771 31.8168 46.8309 32.0072C47.0939 32.1885 47.4248 32.2792 47.8237 32.2792C48.3768 32.2792 48.8528 32.1024 49.2517 31.7488C49.6507 31.3952 49.8501 30.9645 49.8501 30.4568ZM57.6201 31.096C57.6201 31.7216 57.3889 32.2203 56.9265 32.592C56.4732 32.9637 55.8702 33.1496 55.1177 33.1496C54.0478 33.1496 53.2001 32.7235 52.5745 31.8712L53.2817 31.2456C53.7532 31.8712 54.3606 32.184 55.1041 32.184C55.5574 32.184 55.911 32.0797 56.1649 31.8712C56.4188 31.6627 56.5457 31.3816 56.5457 31.028C56.5457 30.7016 56.4188 30.4432 56.1649 30.2528C55.911 30.0533 55.5574 29.9536 55.1041 29.9536H54.3833V29.0288H55.0905C55.8612 29.0288 56.2465 28.7205 56.2465 28.104C56.2465 27.8229 56.1422 27.6008 55.9337 27.4376C55.7342 27.2744 55.4441 27.1928 55.0633 27.1928C54.4014 27.1928 53.8484 27.4648 53.4041 28.0088L52.6969 27.3832C53.259 26.6125 54.0614 26.2272 55.1041 26.2272C55.766 26.2272 56.2918 26.3904 56.6817 26.7168C57.0806 27.0341 57.2801 27.4739 57.2801 28.036C57.2801 28.6616 57.0172 29.1376 56.4913 29.464C57.2438 29.7632 57.6201 30.3072 57.6201 31.096ZM59.0042 29.6816C58.9861 28.7387 59.3216 27.9227 60.0106 27.2336C60.7088 26.5445 61.5293 26.2091 62.4722 26.2272C63.4242 26.2091 64.2448 26.5445 64.9338 27.2336C65.6229 27.9227 65.9584 28.7387 65.9402 29.6816C65.9584 30.6155 65.6184 31.4315 64.9202 32.1296C64.2221 32.8187 63.4016 33.1541 62.4586 33.136C61.5157 33.1541 60.6997 32.8187 60.0106 32.1296C59.3216 31.4315 58.9861 30.6155 59.0042 29.6816ZM64.8658 29.6952C64.8658 28.988 64.6346 28.3941 64.1722 27.9136C63.7189 27.4331 63.1522 27.1928 62.4722 27.1928C61.7922 27.1928 61.221 27.4331 60.7586 27.9136C60.3053 28.3851 60.0786 28.9789 60.0786 29.6952C60.0786 30.3933 60.3053 30.9827 60.7586 31.4632C61.221 31.9347 61.7877 32.1704 62.4586 32.1704C63.1296 32.1704 63.6962 31.9301 64.1586 31.4496C64.6301 30.9691 64.8658 30.3843 64.8658 29.6952ZM73.2074 31.0008C73.2074 31.5992 72.9898 32.0843 72.5546 32.456C72.1285 32.8187 71.5618 33 70.8546 33H67.781V26.3768H70.5146C71.1674 26.3768 71.6842 26.5355 72.065 26.8528C72.4549 27.1701 72.6498 27.5963 72.6498 28.1312C72.6498 28.6843 72.4186 29.1104 71.9562 29.4096C72.7903 29.6997 73.2074 30.2301 73.2074 31.0008ZM68.8282 27.3152V29.0832H70.5282C71.2535 29.0832 71.6162 28.784 71.6162 28.1856C71.6162 27.6053 71.2535 27.3152 70.5282 27.3152H68.8282ZM72.1602 31.0008C72.1602 30.6925 72.0378 30.4523 71.793 30.28C71.5573 30.0987 71.2218 30.008 70.7866 30.008H68.8282V32.0752H70.7866C71.2127 32.0752 71.5482 31.98 71.793 31.7896C72.0378 31.5901 72.1602 31.3272 72.1602 31.0008ZM80.1427 28.92V33H79.1635V32.1432C78.6557 32.8141 77.9123 33.1496 76.9331 33.1496C76.244 33.1496 75.6864 32.9819 75.2603 32.6464C74.8341 32.3019 74.6211 31.8485 74.6211 31.2864C74.6211 30.7243 74.8387 30.2755 75.2739 29.94C75.7091 29.6045 76.2848 29.4368 77.0011 29.4368H79.0955V28.8656C79.0955 28.3307 78.9504 27.9181 78.6603 27.628C78.3792 27.3379 77.9893 27.1928 77.4907 27.1928C76.7472 27.1928 76.1035 27.5464 75.5595 28.2536L74.8659 27.6824C75.4552 26.7123 76.3528 26.2272 77.5587 26.2272C78.3565 26.2272 78.9867 26.4629 79.4491 26.9344C79.9115 27.3968 80.1427 28.0587 80.1427 28.92ZM79.0955 30.4568V30.2936H77.1235C76.1715 30.2936 75.6955 30.6064 75.6955 31.232C75.6955 31.5584 75.8224 31.8168 76.0763 32.0072C76.3392 32.1885 76.6701 32.2792 77.0691 32.2792C77.6221 32.2792 78.0981 32.1024 78.4971 31.7488C78.896 31.3952 79.0955 30.9645 79.0955 30.4568ZM86.1755 33V26.3768H87.2227V33H86.1755ZM88.6371 29.3824L91.7515 33H90.4323L87.3587 29.4096L90.1467 26.3768H91.4523L88.6371 29.3824ZM92.4995 29.6816C92.4814 28.7387 92.8169 27.9227 93.5059 27.2336C94.2041 26.5445 95.0246 26.2091 95.9675 26.2272C96.9195 26.2091 97.7401 26.5445 98.4291 27.2336C99.1182 27.9227 99.4537 28.7387 99.4355 29.6816C99.4537 30.6155 99.1137 31.4315 98.4155 32.1296C97.7174 32.8187 96.8969 33.1541 95.9539 33.136C95.011 33.1541 94.195 32.8187 93.5059 32.1296C92.8169 31.4315 92.4814 30.6155 92.4995 29.6816ZM98.3611 29.6952C98.3611 28.988 98.1299 28.3941 97.6675 27.9136C97.2142 27.4331 96.6475 27.1928 95.9675 27.1928C95.2875 27.1928 94.7163 27.4331 94.2539 27.9136C93.8006 28.3851 93.5739 28.9789 93.5739 29.6952C93.5739 30.3933 93.8006 30.9827 94.2539 31.4632C94.7163 31.9347 95.283 32.1704 95.9539 32.1704C96.6249 32.1704 97.1915 31.9301 97.6539 31.4496C98.1254 30.9691 98.3611 30.3843 98.3611 29.6952ZM101.276 33V26.2272H101.657L104.799 29.9536L107.927 26.2272H108.294V33H107.247V28.5256L104.989 31.2184H104.581L102.324 28.5256V33H101.276ZM110.6 33V26.3768H115.89V33H114.829V27.3152H111.647V33H110.6ZM123.147 28.92V33H122.168V32.1432C121.66 32.8141 120.917 33.1496 119.938 33.1496C119.249 33.1496 118.691 32.9819 118.265 32.6464C117.839 32.3019 117.626 31.8485 117.626 31.2864C117.626 30.7243 117.843 30.2755 118.279 29.94C118.714 29.6045 119.289 29.4368 120.006 29.4368H122.1V28.8656C122.1 28.3307 121.955 27.9181 121.665 27.628C121.384 27.3379 120.994 27.1928 120.495 27.1928C119.752 27.1928 119.108 27.5464 118.564 28.2536L117.871 27.6824C118.46 26.7123 119.357 26.2272 120.563 26.2272C121.361 26.2272 121.991 26.4629 122.454 26.9344C122.916 27.3968 123.147 28.0587 123.147 28.92ZM122.1 30.4568V30.2936H120.128C119.176 30.2936 118.7 30.6064 118.7 31.232C118.7 31.5584 118.827 31.8168 119.081 32.0072C119.344 32.1885 119.675 32.2792 120.074 32.2792C120.627 32.2792 121.103 32.1024 121.502 31.7488C121.901 31.3952 122.1 30.9645 122.1 30.4568ZM125.369 33V26.3768H126.416V29.0152H129.666V26.3768H130.713V33H129.666V29.94H126.416V33H125.369ZM132.896 23.8472C132.896 23.6387 132.969 23.4619 133.114 23.3168C133.268 23.1627 133.459 23.0856 133.685 23.0856C133.894 23.0856 134.075 23.1627 134.229 23.3168C134.383 23.4619 134.46 23.6387 134.46 23.8472C134.46 24.0648 134.383 24.2461 134.229 24.3912C134.084 24.5363 133.903 24.6088 133.685 24.6088C133.459 24.6088 133.268 24.5363 133.114 24.3912C132.969 24.2461 132.896 24.0648 132.896 23.8472ZM133.155 33V26.3768H134.202V33H133.155ZM138.834 26.3768H141.472V33H140.425V30.5792H139.174L137.351 33H136.127L138.059 30.4432C137.569 30.2981 137.184 30.0579 136.903 29.7224C136.631 29.3779 136.495 28.9699 136.495 28.4984C136.495 27.8547 136.708 27.3424 137.134 26.9616C137.56 26.5717 138.127 26.3768 138.834 26.3768ZM140.425 29.6544V27.3152H138.902C138.485 27.3152 138.158 27.4195 137.923 27.628C137.687 27.8365 137.569 28.1221 137.569 28.4848C137.569 28.8384 137.687 29.124 137.923 29.3416C138.167 29.5501 138.498 29.6544 138.915 29.6544H140.425Z" fill="white"/>
<path d="M11.9849 0C11.9849 0 11.4054 7.8025 5.97516 13.3391C1.15042 17.2675 0.377764 19.3554 0.0782526 22.318C-0.223429 25.2935 0.104297 31.045 5.53674 34.9691C5.53674 34.9691 3.58341 30.1942 8.39513 26.2724C12.9833 22.5328 12.4168 19.8763 12.3474 19.631C12.4038 19.8394 13.4912 23.7439 15.8721 25.9642C18.3137 28.2409 17.9556 32.267 15.6463 36C15.6463 36 23.1558 31.1449 23.8221 24.6359C24.8987 14.038 15.4792 1.72111 11.9849 0Z" fill="#F2791F"/>
</svg>
