<svg width="167" height="37" viewBox="0 0 167 37" fill="none" xmlns="http://www.w3.org/2000/svg">
<path d="M51.204 4.904H51.996V17H49.566V10.664L46.578 14.408H45.786L42.798 10.664V17H40.368V4.904H41.16L46.182 11.33L51.204 4.904ZM62.3973 17L61.7313 15.452H56.8713L56.2053 17H53.5953L58.9053 4.904H59.7153L65.0073 17H62.3973ZM60.8853 13.454L59.3013 9.44L57.7173 13.454H60.8853ZM77.0877 17H74.1537L69.0597 10.808V17H66.6297V5.12H69.0597V10.628L73.5957 5.12H76.4937L71.9397 10.718L77.0877 17ZM89.1463 17H86.2123L81.1183 10.808V17H78.6883V5.12H81.1183V10.628L85.6543 5.12H88.5523L83.9983 10.718L89.1463 17ZM89.1664 11.06C89.1424 9.368 89.7544 7.91 91.0024 6.686C92.2624 5.462 93.7504 4.868 95.4664 4.904C97.1824 4.868 98.6704 5.462 99.9304 6.686C101.202 7.91 101.826 9.368 101.802 11.06C101.826 12.752 101.202 14.21 99.9304 15.434C98.6704 16.658 97.1824 17.252 95.4664 17.216C93.7504 17.252 92.2624 16.658 91.0024 15.434C89.7544 14.21 89.1424 12.752 89.1664 11.06ZM99.3004 11.06C99.3004 9.932 98.9344 9.002 98.2024 8.27C97.4824 7.526 96.5764 7.154 95.4844 7.154C94.3804 7.154 93.4684 7.52 92.7484 8.252C92.0284 8.984 91.6684 9.92 91.6684 11.06C91.6684 12.2 92.0284 13.136 92.7484 13.868C93.4684 14.6 94.3804 14.966 95.4844 14.966C96.5764 14.966 97.4824 14.6 98.2024 13.868C98.9344 13.136 99.3004 12.2 99.3004 11.06ZM114.696 4.904H115.488V17H113.058V10.664L110.07 14.408H109.278L106.29 10.664V17H103.86V4.904H104.652L109.674 11.33L114.696 4.904ZM117.664 12.248V10.214H122.2V12.248H117.664ZM124.374 17V5.12H132.006V7.316H126.804V17H124.374ZM133.813 17V5.12H138.277C139.525 5.12 140.551 5.474 141.355 6.182C142.159 6.89 142.561 7.814 142.561 8.954C142.561 10.082 142.159 11.006 141.355 11.726C140.551 12.446 139.525 12.806 138.277 12.806H136.243V17H133.813ZM136.243 10.682H138.277C138.841 10.682 139.279 10.526 139.591 10.214C139.915 9.89 140.077 9.47 140.077 8.954C140.077 8.45 139.909 8.042 139.573 7.73C139.249 7.418 138.817 7.262 138.277 7.262H136.243V10.682ZM151.619 5.12H154.211L150.161 14.012C149.597 15.188 149.057 16.01 148.541 16.478C148.025 16.934 147.257 17.174 146.237 17.198C145.793 17.198 145.343 17.132 144.887 17V14.93C145.187 14.966 145.505 14.984 145.841 14.984C146.561 14.984 147.119 14.732 147.515 14.228L143.087 5.12H145.805L148.829 11.582L151.619 5.12ZM155.821 17V5.12H165.757V17H163.327V7.316H158.251V17H155.821ZM45.528 26.3768H46.5208V32.3608C46.5208 33.3581 46.2307 34.1469 45.6504 34.7272C45.0701 35.3075 44.2859 35.5976 43.2976 35.5976C42.0736 35.5976 41.0355 35.1715 40.1832 34.3192L40.7952 33.5848C41.5931 34.2829 42.4181 34.632 43.2704 34.632C43.9595 34.632 44.4989 34.4371 44.8888 34.0472C45.2787 33.6664 45.4736 33.1224 45.4736 32.4152V31.8304C45.2107 32.1749 44.8571 32.4469 44.4128 32.6464C43.9776 32.8368 43.5107 32.932 43.012 32.932C42.0781 32.932 41.3029 32.6147 40.6864 31.98C40.0699 31.3453 39.7616 30.5475 39.7616 29.5864C39.7616 28.6344 40.0699 27.8365 40.6864 27.1928C41.312 26.5491 42.0872 26.2272 43.012 26.2272C43.5379 26.2272 44.0229 26.336 44.4672 26.5536C44.9205 26.7621 45.2741 27.0568 45.528 27.4376V26.3768ZM45.4872 29.5864C45.4872 28.8339 45.2605 28.2536 44.8072 27.8456C44.3629 27.4285 43.8189 27.22 43.1752 27.22C42.4952 27.22 41.9331 27.4467 41.4888 27.9C41.0445 28.3443 40.8224 28.9109 40.8224 29.6C40.8224 30.2981 41.0445 30.8693 41.4888 31.3136C41.9331 31.7488 42.4952 31.9664 43.1752 31.9664C43.828 31.9664 44.3765 31.7624 44.8208 31.3544C45.2651 30.9373 45.4872 30.348 45.4872 29.5864ZM53.7794 28.92V33H52.8002V32.1432C52.2924 32.8141 51.549 33.1496 50.5698 33.1496C49.8807 33.1496 49.3231 32.9819 48.897 32.6464C48.4708 32.3019 48.2578 31.8485 48.2578 31.2864C48.2578 30.7243 48.4754 30.2755 48.9106 29.94C49.3458 29.6045 49.9215 29.4368 50.6378 29.4368H52.7322V28.8656C52.7322 28.3307 52.5871 27.9181 52.297 27.628C52.0159 27.3379 51.626 27.1928 51.1274 27.1928C50.3839 27.1928 49.7402 27.5464 49.1962 28.2536L48.5026 27.6824C49.0919 26.7123 49.9895 26.2272 51.1954 26.2272C51.9932 26.2272 52.6234 26.4629 53.0858 26.9344C53.5482 27.3968 53.7794 28.0587 53.7794 28.92ZM52.7322 30.4568V30.2936H50.7602C49.8082 30.2936 49.3322 30.6064 49.3322 31.232C49.3322 31.5584 49.4591 31.8168 49.713 32.0072C49.9759 32.1885 50.3068 32.2792 50.7058 32.2792C51.2588 32.2792 51.7348 32.1024 52.1338 31.7488C52.5327 31.3952 52.7322 30.9645 52.7322 30.4568ZM55.3749 31.8576L56.0413 31.164C56.3859 31.5176 56.6987 31.776 56.9797 31.9392C57.2699 32.1024 57.5917 32.184 57.9453 32.184C58.3171 32.184 58.6208 32.1024 58.8565 31.9392C59.0923 31.7669 59.2101 31.5357 59.2101 31.2456C59.2101 30.9917 59.124 30.7968 58.9517 30.6608C58.7885 30.5157 58.4893 30.3571 58.0541 30.1848L57.4149 29.9128C56.8437 29.6771 56.4267 29.4187 56.1637 29.1376C55.9008 28.8565 55.7693 28.5029 55.7693 28.0768C55.7693 27.5147 55.9779 27.0659 56.3949 26.7304C56.8211 26.3949 57.356 26.2272 57.9997 26.2272C58.8973 26.2272 59.6363 26.5763 60.2165 27.2744L59.5773 27.9272C59.0877 27.4376 58.5437 27.1928 57.9453 27.1928C57.6099 27.1928 57.3424 27.2653 57.1429 27.4104C56.9435 27.5555 56.8437 27.7595 56.8437 28.0224C56.8437 28.2309 56.9163 28.4032 57.0613 28.5392C57.2155 28.6661 57.5011 28.8157 57.9181 28.988L58.5301 29.2464C59.1648 29.5184 59.6136 29.804 59.8765 30.1032C60.1485 30.3933 60.2845 30.7605 60.2845 31.2048C60.2845 31.8213 60.0579 32.3019 59.6045 32.6464C59.1603 32.9819 58.6117 33.1496 57.9589 33.1496C56.8981 33.1496 56.0368 32.7189 55.3749 31.8576ZM65.512 29.6816C65.4939 28.7387 65.8294 27.9227 66.5184 27.2336C67.2075 26.5445 68.028 26.2091 68.98 26.2272C69.5512 26.2272 70.0726 26.3541 70.544 26.608C71.0155 26.8619 71.4054 27.2155 71.7136 27.6688L70.9656 28.2672C70.4398 27.5509 69.7824 27.1928 68.9936 27.1928C68.3136 27.1928 67.7424 27.4376 67.28 27.9272C66.8176 28.4077 66.5864 28.9925 66.5864 29.6816C66.5864 30.3797 66.8176 30.9736 67.28 31.4632C67.7424 31.9437 68.3136 32.184 68.9936 32.184C69.7734 32.184 70.4262 31.8304 70.952 31.1232L71.7 31.708C71.0472 32.6691 70.1406 33.1496 68.98 33.1496C68.019 33.1496 67.1984 32.8141 66.5184 32.1432C65.8475 31.4632 65.512 30.6427 65.512 29.6816ZM72.8698 29.6816C72.8517 28.7387 73.1872 27.9227 73.8762 27.2336C74.5744 26.5445 75.3949 26.2091 76.3378 26.2272C77.2898 26.2091 78.1104 26.5445 78.7994 27.2336C79.4885 27.9227 79.824 28.7387 79.8058 29.6816C79.824 30.6155 79.484 31.4315 78.7858 32.1296C78.0877 32.8187 77.2672 33.1541 76.3242 33.136C75.3813 33.1541 74.5653 32.8187 73.8762 32.1296C73.1872 31.4315 72.8517 30.6155 72.8698 29.6816ZM78.7314 29.6952C78.7314 28.988 78.5002 28.3941 78.0378 27.9136C77.5845 27.4331 77.0178 27.1928 76.3378 27.1928C75.6578 27.1928 75.0866 27.4331 74.6242 27.9136C74.1709 28.3851 73.9442 28.9789 73.9442 29.6952C73.9442 30.3933 74.1709 30.9827 74.6242 31.4632C75.0866 31.9347 75.6533 32.1704 76.3242 32.1704C76.9952 32.1704 77.5618 31.9301 78.0242 31.4496C78.4957 30.9691 78.7314 30.3843 78.7314 29.6952ZM91.3162 28.8384V33H90.269V28.9744C90.269 28.4304 90.1285 27.9997 89.8474 27.6824C89.5754 27.356 89.1946 27.1928 88.705 27.1928C88.2154 27.1928 87.8074 27.356 87.481 27.6824C87.1637 28.0088 87.005 28.4077 87.005 28.8792V33H85.9578V28.9744C85.9578 28.4395 85.8128 28.0088 85.5226 27.6824C85.2416 27.356 84.8608 27.1928 84.3802 27.1928C83.8816 27.1928 83.4736 27.3605 83.1562 27.696C82.848 28.0224 82.6938 28.4485 82.6938 28.9744V33H81.6466V26.3768H82.6258V27.0704C83.1154 26.5083 83.7728 26.2272 84.5978 26.2272C85.5589 26.2272 86.2389 26.608 86.6378 27.3696C87.1728 26.608 87.9298 26.2272 88.909 26.2272C89.6616 26.2272 90.2509 26.4629 90.677 26.9344C91.1032 27.4059 91.3162 28.0405 91.3162 28.8384ZM99.3541 27.22C99.9797 27.8819 100.293 28.7024 100.293 29.6816C100.293 30.6608 99.9752 31.4859 99.3405 32.1568C98.7149 32.8187 97.9397 33.1496 97.0149 33.1496C95.9723 33.1496 95.1608 32.7824 94.5805 32.048V35.448H93.5333V26.3768H94.5125V27.4376C94.7664 27.0568 95.1155 26.7621 95.5597 26.5536C96.004 26.336 96.4891 26.2272 97.0149 26.2272C97.9579 26.2272 98.7376 26.5581 99.3541 27.22ZM98.5381 31.4768C98.9915 31.0053 99.2181 30.4115 99.2181 29.6952C99.2181 28.9789 98.9915 28.3851 98.5381 27.9136C98.0939 27.4331 97.5363 27.1928 96.8653 27.1928C96.2307 27.1928 95.6867 27.4104 95.2333 27.8456C94.7891 28.2808 94.5669 28.8928 94.5669 29.6816C94.5669 30.4885 94.7845 31.1096 95.2197 31.5448C95.664 31.9709 96.2125 32.184 96.8653 32.184C97.5363 32.184 98.0939 31.9483 98.5381 31.4768ZM107.09 28.92V33H106.111V32.1432C105.603 32.8141 104.86 33.1496 103.881 33.1496C103.192 33.1496 102.634 32.9819 102.208 32.6464C101.782 32.3019 101.569 31.8485 101.569 31.2864C101.569 30.7243 101.786 30.2755 102.222 29.94C102.657 29.6045 103.232 29.4368 103.949 29.4368H106.043V28.8656C106.043 28.3307 105.898 27.9181 105.608 27.628C105.327 27.3379 104.937 27.1928 104.438 27.1928C103.695 27.1928 103.051 27.5464 102.507 28.2536L101.814 27.6824C102.403 26.7123 103.3 26.2272 104.506 26.2272C105.304 26.2272 105.934 26.4629 106.397 26.9344C106.859 27.3968 107.09 28.0587 107.09 28.92ZM106.043 30.4568V30.2936H104.071C103.119 30.2936 102.643 30.6064 102.643 31.232C102.643 31.5584 102.77 31.8168 103.024 32.0072C103.287 32.1885 103.618 32.2792 104.017 32.2792C104.57 32.2792 105.046 32.1024 105.445 31.7488C105.844 31.3952 106.043 30.9645 106.043 30.4568ZM114.792 28.8384V33H113.745V28.9608C113.745 28.4349 113.595 28.0088 113.296 27.6824C113.006 27.356 112.607 27.1928 112.099 27.1928C111.592 27.1928 111.175 27.3605 110.848 27.696C110.522 28.0224 110.359 28.444 110.359 28.9608V33H109.311V26.3768H110.291V27.084C110.807 26.5128 111.487 26.2272 112.331 26.2272C113.092 26.2272 113.691 26.4675 114.126 26.948C114.57 27.4195 114.792 28.0496 114.792 28.8384ZM121.72 26.3768H122.835L119.571 33.9248C119.082 35.04 118.334 35.5976 117.327 35.5976C116.974 35.5976 116.634 35.5523 116.307 35.4616V34.5776C116.688 34.6229 116.956 34.6456 117.11 34.6456C117.472 34.6456 117.772 34.564 118.007 34.4008C118.243 34.2467 118.443 33.9747 118.606 33.5848L118.959 32.796L116.212 26.3768H117.341L119.531 31.6536L121.72 26.3768Z" fill="#181834"/>
<path d="M11.9849 0C11.9849 0 11.4054 7.8025 5.97516 13.3391C1.15042 17.2675 0.377764 19.3554 0.0782526 22.318C-0.223429 25.2935 0.104297 31.045 5.53674 34.9691C5.53674 34.9691 3.58341 30.1942 8.39513 26.2724C12.9833 22.5328 12.4168 19.8763 12.3474 19.631C12.4038 19.8394 13.4912 23.7439 15.8721 25.9642C18.3137 28.2409 17.9556 32.267 15.6463 36C15.6463 36 23.1558 31.1449 23.8221 24.6359C24.8987 14.038 15.4792 1.72111 11.9849 0Z" fill="#F2791F"/>
</svg>
