<svg width="8" height="8" viewBox="0 0 8 8" fill="none" xmlns="http://www.w3.org/2000/svg">
<path d="M1.41311 2.19468L3.99978 4.78135L6.58645 2.19468C6.64817 2.13296 6.72144 2.084 6.80208 2.0506C6.88273 2.01719 6.96916 2 7.05645 2C7.14373 2 7.23017 2.01719 7.31081 2.0506C7.39145 2.084 7.46473 2.13296 7.52645 2.19468C7.58817 2.2564 7.63713 2.32968 7.67053 2.41032C7.70393 2.49096 7.72113 2.57739 7.72113 2.66468C7.72113 2.75197 7.70393 2.8384 7.67053 2.91904C7.63713 2.99969 7.58817 3.07296 7.52645 3.13468L4.46645 6.19468C4.40477 6.25648 4.33151 6.30551 4.25086 6.33897C4.17021 6.37242 4.08376 6.38964 3.99645 6.38964C3.90913 6.38964 3.82268 6.37242 3.74203 6.33897C3.66138 6.30551 3.58812 6.25648 3.52645 6.19468L0.466447 3.13468C0.404645 3.073 0.355613 2.99975 0.322158 2.9191C0.288704 2.83845 0.271484 2.75199 0.271484 2.66468C0.271484 2.57737 0.288704 2.49091 0.322158 2.41026C0.355613 2.32962 0.404645 2.25636 0.466447 2.19468C0.726447 1.94135 1.15311 1.93468 1.41311 2.19468Z" fill="#181834"/>
</svg>
